<?xml version="1.0" standalone="no"?>
<!DOCTYPE svg PUBLIC "-//W3C//DTD SVG 20010904//EN"
 "http://www.w3.org/TR/2001/REC-SVG-20010904/DTD/svg10.dtd">
<svg version="1.0" xmlns="http://www.w3.org/2000/svg"
 width="1254.000000pt" height="902.000000pt" viewBox="0 0 1254.000000 902.000000"
 preserveAspectRatio="xMidYMid meet">
<metadata>
Created by potrace 1.16, written by Peter Selinger 2001-2019
</metadata>
<g transform="translate(0.000000,902.000000) scale(0.100000,-0.100000)"
fill="currentColor" stroke="none">
<path d="M5885 7599 c-995 -79 -1831 -458 -2487 -1127 -662 -675 -1032 -1551
-1055 -2494 -13 -530 81 -1021 287 -1503 53 -125 183 -381 204 -402 6 -7 47
-16 89 -19 l78 -7 -37 79 c-138 299 -233 593 -288 894 -43 239 -51 339 -50
640 0 295 9 398 55 640 312 1633 1616 2807 3304 2975 206 21 619 16 815 -9
1207 -156 2257 -863 2798 -1884 85 -160 74 -111 -16 73 -373 760 -900 1316
-1617 1702 -630 340 -1375 498 -2080 442z"/>
<path d="M7660 6703 c0 -5 -7 -127 -15 -273 l-15 -265 -160 -155 -160 -155 0
-128 0 -128 -84 -39 c-47 -22 -90 -48 -95 -59 -8 -13 -11 -372 -11 -1130 l0
-1110 124 -70 c68 -39 126 -71 129 -71 3 0 7 63 9 141 3 129 5 142 24 157 12
10 69 50 128 90 l106 72 0 1293 c0 1359 -1 1317 43 1317 19 0 19 6 13 113 -3
61 -9 178 -12 260 -4 81 -11 147 -15 147 -5 0 -9 -3 -9 -7z"/>
<path d="M7750 4891 c0 -671 3 -1222 8 -1225 4 -2 29 11 55 30 l47 34 0 895 0
895 40 -20 40 -20 0 -785 c0 -485 4 -785 9 -785 6 0 26 9 45 21 l36 21 0 743
0 744 40 -17 40 -17 0 -707 c0 -390 3 -708 8 -708 4 0 25 11 47 23 l40 23 3
719 c1 396 0 729 -2 740 -4 14 -35 35 -96 65 l-90 44 0 126 0 125 -128 128
c-70 70 -131 127 -135 127 -4 0 -7 -549 -7 -1219z"/>
<path d="M4640 5719 c-113 -19 -233 -94 -294 -183 -61 -87 -105 -233 -77 -250
5 -4 3 -26 -5 -53 -8 -28 -14 -91 -14 -159 0 -104 -2 -113 -20 -119 -32 -10
-23 -26 56 -93 77 -65 93 -67 82 -7 -4 20 -1 25 15 25 10 0 41 12 67 26 l49
26 27 -21 c25 -20 54 -28 54 -16 0 3 -10 19 -21 35 -47 63 -29 175 33 209 53
30 114 -18 125 -98 6 -40 31 -71 59 -71 6 0 29 25 50 55 27 40 42 54 53 49 14
-6 156 -58 189 -69 10 -4 6 -17 -14 -55 -25 -47 -27 -55 -21 -136 l6 -86 -39
6 c-38 6 -40 5 -60 -31 -41 -77 -105 -158 -129 -161 -61 -9 -208 98 -233 169
-20 57 -29 30 -25 -74 4 -98 6 -105 41 -159 20 -32 36 -62 36 -68 0 -7 -23
-38 -52 -71 l-52 -60 -31 78 c-91 225 -202 372 -334 442 -58 31 -71 34 -138
32 -273 -7 -483 -213 -653 -641 -102 -257 -303 -916 -330 -1084 -35 -217 30
-427 189 -608 23 -25 41 -49 41 -52 0 -3 15 -29 34 -58 121 -190 311 -515 288
-493 -6 6 -63 75 -127 155 -64 80 -164 205 -223 278 -60 75 -108 127 -110 119
-2 -11 78 -377 115 -526 6 -24 5 -24 -53 -18 -32 4 -146 16 -253 27 -167 18
-197 19 -215 7 -18 -13 -24 -12 -47 6 -37 26 -94 36 -222 37 -118 0 -140 -6
-161 -48 -18 -37 -31 -268 -16 -287 9 -10 8 -44 -4 -135 -28 -212 -20 -297 34
-362 l28 -33 63 18 c35 10 107 29 159 43 52 14 98 29 103 33 4 4 -6 19 -23 34
-40 36 -41 86 -1 149 40 63 48 65 61 19 5 -21 17 -45 26 -52 15 -13 764 -47
1055 -48 183 -1 270 37 331 145 58 104 57 139 -18 717 -20 153 -34 280 -32
282 4 4 521 65 550 65 7 0 9 -19 5 -53 -3 -28 -25 -227 -48 -441 -40 -373 -41
-390 -24 -402 17 -13 17 -16 -4 -71 -12 -32 -25 -88 -28 -124 l-6 -67 39 -5
c22 -4 84 -9 139 -12 199 -12 436 -39 655 -75 69 -11 129 -20 134 -20 4 0 7
29 4 64 -7 109 -56 154 -193 176 -77 12 -148 45 -188 87 l-27 29 35 17 c19 9
35 22 35 29 0 7 9 74 21 148 34 230 127 880 140 983 23 189 -21 287 -156 349
-50 23 -54 23 -515 26 -256 1 -475 4 -488 7 -21 5 -19 12 64 173 48 92 90 171
94 176 5 4 69 -45 143 -110 179 -158 229 -188 321 -192 103 -5 305 51 690 192
92 33 136 44 136 31 0 -3 -27 -42 -60 -87 -73 -100 -78 -132 -26 -184 28 -28
41 -34 78 -34 61 0 78 15 168 150 l80 119 49 -2 c53 -2 101 28 101 63 0 9 14
26 30 38 18 14 30 32 30 46 0 15 9 27 25 34 27 13 48 53 39 76 -3 9 3 17 15
21 58 18 77 94 37 142 l-25 29 97 130 97 129 105 5 c152 8 231 55 286 173 27
58 34 181 13 234 l-11 28 -88 -94 -89 -93 -53 12 c-76 18 -79 21 -104 96 l-23
69 97 98 c108 109 108 108 13 128 -229 48 -418 -163 -357 -397 9 -34 16 -72
16 -83 0 -12 -48 -90 -106 -174 l-106 -152 -86 0 c-99 -1 -104 -3 -215 -88
-93 -70 -102 -72 -492 -107 -126 -11 -238 -22 -248 -24 -28 -7 -135 139 -120
164 10 15 -1 36 -67 134 -73 108 -78 118 -69 148 5 18 9 46 9 63 l0 30 31 -38
c51 -62 62 -52 57 56 -3 88 -5 95 -45 159 -47 76 -42 89 20 60 67 -32 122 -44
150 -33 27 11 78 69 126 146 27 43 35 49 61 47 62 -7 70 7 70 125 0 105 2 112
45 180 1 2 33 -8 72 -21 97 -33 144 -39 194 -26 45 12 114 71 107 91 -3 10
-194 97 -280 128 -28 10 -28 11 -28 93 0 182 -66 310 -204 400 -103 66 -248
97 -366 77z m-499 -1055 c105 -53 194 -159 256 -307 28 -67 117 -209 245 -393
l33 -46 -25 -17 c-21 -14 -208 -153 -345 -259 l-42 -32 -79 92 c-92 108 -335
360 -341 354 -3 -2 37 -73 87 -156 106 -176 107 -157 -18 -241 -149 -99 -278
-105 -353 -16 -114 136 -69 537 92 810 124 209 324 296 490 211z m1842 -821
c63 -14 133 -55 123 -72 -3 -4 -39 -3 -80 3 -87 11 -106 2 -106 -48 0 -17 -7
-40 -15 -50 -8 -11 -15 -28 -15 -38 0 -11 -11 -36 -25 -56 -14 -20 -25 -43
-25 -51 0 -53 -88 -66 -203 -31 l-66 20 -283 -94 c-405 -136 -513 -158 -593
-120 -64 30 -332 264 -322 281 10 16 304 243 315 243 6 0 36 -41 69 -90 l58
-91 45 6 c25 3 135 15 245 25 230 23 407 47 448 60 16 5 56 31 90 58 34 27 71
54 82 61 25 14 160 6 258 -16z"/>
<path d="M9025 5083 c-11 -3 -144 -32 -295 -65 -159 -35 -282 -66 -292 -75
-17 -15 -18 -52 -18 -504 l0 -488 173 -113 c134 -89 344 -224 359 -232 2 0 5
-280 8 -621 l5 -620 27 45 c15 25 43 61 63 80 l35 34 0 1283 0 1283 -22 -1
c-13 -1 -32 -3 -43 -6z"/>
<path d="M9200 3575 c0 -410 1 -745 3 -745 1 0 27 24 58 53 130 122 325 169
491 117 34 -11 64 -20 66 -20 1 0 2 243 2 539 l0 540 -22 24 c-23 25 -541 237
-580 237 -17 0 -18 -27 -18 -745z m208 321 l3 -98 -33 7 c-49 11 -48 9 -48
115 l0 99 38 -13 37 -13 3 -97z m126 54 c25 -9 26 -12 26 -100 0 -94 -1 -96
-47 -84 -22 6 -23 11 -23 100 0 97 2 100 44 84z m174 -149 l3 -92 -28 7 c-15
4 -31 9 -35 13 -5 5 -12 148 -9 183 1 4 16 1 34 -7 l32 -13 3 -91z m-329 -97
l31 -6 0 -98 0 -98 -40 10 -40 10 0 94 c0 52 4 94 9 94 5 0 23 -3 40 -6z m150
-45 l31 -11 0 -89 c0 -93 -1 -95 -47 -83 -22 6 -23 11 -23 100 0 52 2 94 4 94
1 0 17 -5 35 -11z m150 -40 l31 -11 0 -89 c0 -95 -3 -100 -55 -80 -18 7 -20
17 -20 99 0 51 3 92 6 92 3 0 20 -5 38 -11z m-291 -214 c21 -6 22 -11 22 -100
l0 -93 -40 10 -40 10 0 95 c0 103 -5 96 58 78z m146 -35 c25 -9 26 -12 26
-101 0 -90 0 -91 -22 -85 -13 3 -29 6 -35 6 -10 0 -13 26 -13 95 0 98 2 101
44 85z m145 -36 l31 -6 0 -89 c0 -86 -1 -89 -22 -89 -13 0 -28 4 -35 8 -12 7
-23 182 -12 182 4 0 21 -3 38 -6z"/>
<path d="M6741 3946 c-161 -65 -260 -110 -268 -123 -10 -16 -13 -89 -11 -351
l3 -332 198 132 199 132 66 -34 c36 -19 69 -36 74 -38 4 -2 8 159 8 357 0 199
-3 361 -7 361 -5 -1 -122 -47 -262 -104z"/>
<path d="M8300 3960 c-19 -11 -89 -42 -155 -70 -162 -69 -159 -66 -156 -144
l2 -64 -244 -166 c-168 -113 -247 -173 -251 -188 -3 -13 -6 -80 -6 -150 l0
-126 71 -41 c39 -23 73 -41 75 -41 2 0 4 47 4 104 l0 103 72 42 c39 23 72 40
74 39 1 -2 4 -132 5 -290 l3 -287 259 -238 c143 -131 268 -244 278 -251 18
-13 19 13 19 887 0 496 -3 901 -7 901 -5 -1 -24 -9 -43 -20z"/>
<path d="M8480 2869 l0 -822 40 -44 c40 -43 41 -45 38 -111 l-3 -67 -35 -5
-35 -5 0 -150 0 -150 60 4 c33 1 63 5 68 8 4 2 7 473 7 1046 l0 1042 -61 38
c-33 20 -65 37 -70 37 -5 0 -9 -321 -9 -821z"/>
<path d="M8717 2557 c1 -540 2 -992 2 -1005 1 -22 4 -23 64 -20 l62 3 3 967 2
966 -59 36 c-32 20 -63 36 -67 36 -5 0 -8 -431 -7 -983z"/>
<path d="M6810 3237 c-25 -18 -206 -138 -402 -267 l-358 -233 0 -258 0 -258
-62 -19 c-35 -11 -130 -39 -212 -63 -118 -35 -150 -48 -156 -65 -5 -11 -6
-207 -3 -436 l6 -415 236 -46 c130 -25 252 -44 271 -42 19 3 89 9 155 15 116
11 422 55 458 66 16 5 17 30 17 344 l0 338 73 69 c39 39 133 126 208 194 229
210 449 410 546 498 84 77 93 88 93 120 l0 36 -198 109 c-108 61 -253 142
-322 182 -174 100 -291 164 -299 164 -3 0 -26 -15 -51 -33z m10 -415 l0 -138
-85 -42 -85 -42 0 128 0 129 83 51 c45 28 83 51 85 52 1 0 2 -62 2 -138z
m-260 -148 l0 -125 -74 -35 c-41 -19 -77 -34 -81 -34 -3 0 -4 53 -3 118 l3
117 75 43 c41 23 76 42 77 42 2 0 3 -57 3 -126z m852 26 l27 -16 -74 -68 -75
-67 0 111 0 112 48 -28 c26 -15 59 -35 74 -44z m-592 -259 l0 -128 -80 -37
c-43 -20 -82 -36 -85 -36 -3 0 -5 56 -5 125 l0 125 78 39 c42 22 80 40 85 41
4 0 7 -58 7 -129z m-260 -124 l0 -123 -42 -16 c-24 -9 -60 -23 -80 -32 l-38
-16 0 120 0 121 73 33 c39 19 75 35 80 35 4 1 7 -54 7 -122z m260 -149 c-1
-16 -27 -46 -85 -96 l-85 -73 0 63 0 63 78 32 c95 38 92 38 92 11z m-251 -199
c1 -33 -6 -43 -71 -101 -106 -93 -98 -97 -98 40 l0 119 78 30 77 31 7 -42 c3
-22 7 -57 7 -77z"/>
<path d="M9530 2897 c-187 -42 -319 -202 -320 -387 0 -40 -4 -48 -30 -63 -87
-52 -145 -176 -138 -297 11 -191 154 -336 358 -364 l80 -10 0 -137 c0 -148 1
-149 56 -149 l24 0 0 246 0 247 -107 109 c-91 91 -106 111 -97 126 23 35 45
25 125 -54 44 -43 80 -76 81 -74 1 3 4 92 7 199 5 166 8 195 23 204 12 8 21 7
32 -2 14 -12 16 -44 16 -227 0 -118 3 -214 8 -214 4 0 43 36 87 80 79 79 100
91 123 68 18 -18 19 -16 -98 -149 l-110 -124 0 -228 c0 -173 3 -229 13 -231 6
-3 24 -7 40 -10 l27 -6 0 170 c0 164 1 171 19 165 33 -10 144 14 207 45 77 38
146 110 186 196 28 61 30 71 26 157 -5 114 -32 172 -111 243 l-54 49 -6 75
c-6 91 -31 153 -89 216 -104 113 -242 161 -378 131z"/>
<path d="M7559 2477 c-142 -130 -484 -443 -557 -509 -24 -22 -42 -41 -40 -43
2 -2 31 -5 66 -7 l62 -3 0 -286 c0 -157 3 -326 6 -375 3 -49 1 -95 -3 -101
-10 -14 -339 -73 -548 -98 -71 -9 -131 -17 -133 -19 -2 -2 26 -9 60 -15 501
-87 803 -79 1430 39 533 101 754 129 1053 135 l220 5 -155 -24 c-238 -37 -429
-78 -813 -175 -357 -91 -567 -135 -802 -167 -159 -22 -625 -26 -775 -6 -159
21 -338 52 -475 83 -812 185 -1276 254 -1895 279 -507 22 -1039 -23 -1505
-126 -150 -33 -454 -117 -483 -133 -8 -4 116 -11 275 -14 766 -17 1304 -126
2138 -434 660 -244 969 -333 1365 -392 490 -73 1002 -49 1490 71 392 95 702
222 1360 555 614 311 887 395 1315 406 l90 2 -40 21 c-78 42 -312 123 -470
162 -368 92 -791 122 -1220 87 -99 -8 -190 -15 -202 -15 l-23 0 0 265 0 265
45 0 c25 0 45 4 45 9 0 12 -730 681 -744 681 -2 0 -64 -55 -137 -123z m91
-557 l0 -100 -85 0 -85 0 0 100 0 100 85 0 85 0 0 -100z m260 0 l0 -100 -85 0
-85 0 0 100 0 100 85 0 85 0 0 -100z m-260 -284 l0 -104 -85 -1 -85 -2 0 106
0 105 85 0 85 0 0 -104z m260 -2 l0 -105 -85 2 -85 2 0 103 0 104 85 0 85 0 0
-106z"/>
<path d="M8960 1760 l0 -220 60 0 60 0 0 136 0 136 -33 38 c-18 21 -43 59 -56
84 -12 25 -24 46 -27 46 -2 0 -4 -99 -4 -220z"/>
</g>
</svg>
